<?xml version="1.0" encoding="utf-8"?>
<svg xmlns="http://www.w3.org/2000/svg" style="margin: auto; background: none; display: block; shape-rendering: auto;" width="280" height="250" preserveAspectRatio="xMidYMid">
<style type="text/css">
  text {
    text-anchor: middle; font-size: 80px; opacity: 0;
  }
</style>
<g style="transform-origin:140px 125px;transform:scale(1)">
<g transform="translate(140,125)">
  <g transform="translate(0,0)"><g class="path" style="transform: matrix(1, 0, 0, 1, 0, 0); transform-origin: -94.2px -5.6172px; animation: 1s linear -0.5775s infinite normal forwards running bounce-d7607dfb-5ee1-493f-a32f-a0e2b959eb9e;"><path d="M8.64-56.96L8.64-56.96L20.16-56.32L20.16-56.32Q27.84-56.32 31.20-58.16L31.20-58.16L31.20-58.16Q31.68-58.48 32.04-58.48L32.04-58.48L32.04-58.48Q32.40-58.48 32.40-57.36L32.40-57.36L32.40-57.36Q32.40-56.24 31.04-53.68L31.04-53.68L31.04-53.68Q29.04-49.76 25.28-49.76L25.28-49.76L20.88-49.84L20.88-49.84Q20.24-49.84 20.08-49.12L20.08-49.12L20.08-49.12Q19.52-37.36 19.52-23.72L19.52-23.72L19.52-23.72Q19.52-10.08 20.64-3.20L20.64-3.20L20.64-2.80L20.64-2.80Q20.64-0.80 16.84 0.40L16.84 0.40L16.84 0.40Q13.04 1.60 9.68 1.60L9.68 1.60L9.68 1.60Q8.08 1.60 8.08 0.72L8.08 0.72L8.08 0.72Q8.08 0.48 8.32-0.40L8.32-0.40L8.32-0.40Q9.20-2.16 9.88-17.44L9.88-17.44L9.88-17.44Q10.56-32.72 10.56-40.48L10.56-40.48L10.40-49.20L10.40-49.20Q10.40-49.68 9.92-49.76L9.92-49.76L9.92-49.76Q8.24-50.08 6.08-50.08L6.08-50.08L6.08-50.08Q1.76-50.08-0.32-48.32L-0.32-48.32L-0.32-48.32Q-0.88-47.92-1.40-47.92L-1.40-47.92L-1.40-47.92Q-1.92-47.92-1.92-48.56L-1.92-48.56L-1.92-48.56Q-1.92-49.52-0.92-51.20L-0.92-51.20L-0.92-51.20Q0.08-52.88 1.20-54.08L1.20-54.08L1.20-54.08Q3.92-56.96 8.64-56.96" fill="#00493e" stroke="none" stroke-width="none" transform="translate(-109.44000911712646,22.82279399871826)" style="fill: rgb(0, 73, 62);"></path></g><g class="path" style="transform: matrix(1, 0, 0, 1, 0, 0); transform-origin: -67.52px 5.26279px; animation: 1s linear -0.495s infinite normal forwards running bounce-d7607dfb-5ee1-493f-a32f-a0e2b959eb9e;"><path d="M54.32-27.52L53.92-21.44L54.24-18.64L54.24-18.64Q54.24-17.12 51.36-17.12L51.36-17.12L51.36-17.12Q45.52-17.12 45.52-21.52L45.52-21.52L45.52-21.52Q45.52-22.56 46.08-24.40L46.08-24.40L46.08-24.40Q46.64-26.24 46.64-27.60L46.64-27.60L46.64-27.60Q46.64-28.96 45.84-29.96L45.84-29.96L45.84-29.96Q45.04-30.96 43.52-30.96L43.52-30.96L43.52-30.96Q42-30.96 40.92-29.88L40.92-29.88L40.92-29.88Q39.84-28.80 39.60-27.68L39.60-27.68L39.28-26.56L39.28-26.56Q38.80-24.08 38.80-18.28L38.80-18.28L38.80-18.28Q38.80-12.48 38.96-9.16L38.96-9.16L38.96-9.16Q39.12-5.84 39.28-4.60L39.28-4.60L39.28-4.60Q39.44-3.36 39.44-3.12L39.44-3.12L39.44-3.12Q39.44-1.12 36.96 0.12L36.96 0.12L36.96 0.12Q34.48 1.36 32 1.36L32 1.36L32 1.36Q29.52 1.36 29.52 0.32L29.52 0.32L29.92-2.16L29.92-2.16Q31.04-9.12 31.04-20.32L31.04-20.32L31.04-20.32Q31.04-31.52 30.24-35.52L30.24-35.52L30.24-35.52Q30.24-36.48 31.92-36.48L31.92-36.48L31.92-36.48Q36.24-36.48 37.68-33.52L37.68-33.52L37.68-33.52Q37.76-33.20 37.96-33.20L37.96-33.20L37.96-33.20Q38.16-33.20 39.04-33.92L39.04-33.92L39.04-33.92Q41.68-36.08 45.28-36.08L45.28-36.08L45.28-36.08Q47.52-36.08 49.76-35.20L49.76-35.20L49.76-35.20Q54.32-33.36 54.32-27.52L54.32-27.52" fill="#00493e" stroke="none" stroke-width="none" transform="translate(-109.44000911712646,22.82279399871826)" style="fill: rgb(0, 73, 62);"></path></g><g class="path" style="transform: matrix(1, 0, 0, 1, 0, 0); transform-origin: -39.52px 5.26279px; animation: 1s linear -0.4125s infinite normal forwards running bounce-d7607dfb-5ee1-493f-a32f-a0e2b959eb9e;"><path d="M82.80-24L82.80-24L82.64-13.76L82.64-13.76Q82.64-3.12 84.96-0.96L84.96-0.96L84.96-0.96Q85.28-0.64 85.28-0.24L85.28-0.24L85.28-0.24Q85.28 0.96 80.12 0.96L80.12 0.96L80.12 0.96Q74.96 0.96 74.64-2.08L74.64-2.08L74.64-2.08Q74.56-2.80 74.56-5.04L74.56-5.04L74.88-17.84L74.88-17.84Q74.88-18.40 74.24-18.40L74.24-18.40L74.24-18.40Q70.40-18.40 67.04-16.24L67.04-16.24L67.04-16.24Q63.68-14.08 63.68-10.72L63.68-10.72L63.68-10.72Q63.68-8.96 64.64-7.76L64.64-7.76L64.64-7.76Q65.60-6.56 67-6.56L67-6.56L67-6.56Q68.40-6.56 69.32-7.12L69.32-7.12L69.32-7.12Q70.24-7.68 70.40-7.76L70.40-7.76L70.40-7.76Q71.76-7.60 71.76-4.92L71.76-4.92L71.76-4.92Q71.76-2.24 69.28-0.60L69.28-0.60L69.28-0.60Q66.80 1.04 64.08 1.04L64.08 1.04L64.08 1.04Q61.36 1.04 59.40 0.08L59.40 0.08L59.40 0.08Q57.44-0.88 56.56-2.08L56.56-2.08L56.56-2.08Q55.68-3.28 55.12-4.80L55.12-4.80L55.12-4.80Q54.56-6.64 54.56-8L54.56-8L54.56-8Q54.56-13.60 58.08-16.96L58.08-16.96L58.08-16.96Q61.60-20.32 67.12-21.76L67.12-21.76L67.12-21.76Q74.40-23.20 74.72-24.40L74.72-24.40L74.72-24.40Q74.96-25.28 74.96-27.36L74.96-27.36L74.96-27.36Q74.96-31.60 70.64-31.60L70.64-31.60L70.64-31.60Q68.80-31.60 67.36-30.44L67.36-30.44L67.36-30.44Q65.92-29.28 65.92-27.52L65.92-27.52L66.40-25.60L66.40-25.60Q66.24-24.24 63.52-24L63.52-24L62.64-23.92L62.64-23.92Q60.24-23.92 58.84-25.12L58.84-25.12L58.84-25.12Q57.44-26.32 57.44-28.32L57.44-28.32L57.44-28.32Q57.44-29.60 58.28-31.16L58.28-31.16L58.28-31.16Q59.12-32.72 60.40-33.68L60.40-33.68L60.40-33.68Q61.68-34.64 64.36-35.40L64.36-35.40L64.36-35.40Q67.04-36.16 69.52-36.16L69.52-36.16L69.52-36.16Q72-36.16 73.36-36L73.36-36L73.36-36Q74.72-35.84 77.08-35.24L77.08-35.24L77.08-35.24Q79.44-34.64 81-32.96L81-32.96L81-32.96Q82.56-31.28 82.68-29.40L82.68-29.40L82.68-29.40Q82.80-27.52 82.80-24" fill="#00493e" stroke="none" stroke-width="none" transform="translate(-109.44000911712646,22.82279399871826)" style="fill: rgb(0, 73, 62);"></path></g><g class="path" style="transform: matrix(1, 0, 0, 1, 0, 0); transform-origin: -9.28002px 5.82279px; animation: 1s linear -0.33s infinite normal forwards running bounce-d7607dfb-5ee1-493f-a32f-a0e2b959eb9e;"><path d="M105.72-34.56L105.72-34.56L105.72-34.56Q109.12-36.24 112.48-36.24L112.48-36.24L112.48-36.24Q115.84-36.24 115.84-29.28L115.84-29.28L115.84-29.28Q115.84-24.16 113.96-18.88L113.96-18.88L113.96-18.88Q112.08-13.60 109.28-9.60L109.28-9.60L109.28-9.60Q103.52-1.20 98.88 1.60L98.88 1.60L98.88 1.60Q97.76 2.24 97.20 2.24L97.20 2.24L97.20 2.24Q96.64 2.24 96.04 1.04L96.04 1.04L96.04 1.04Q95.44-0.16 94.20-4.24L94.20-4.24L94.20-4.24Q92.96-8.32 92.16-11.52L92.16-11.52L91.44-14.80L91.44-14.80Q89.84-21.84 88.32-26.04L88.32-26.04L88.32-26.04Q86.80-30.24 86.08-30.88L86.08-30.88L85.28-31.60L85.28-31.60Q84.48-32 84.48-32.56L84.48-32.56L84.88-33.28L84.88-33.28Q85.92-34.24 88.36-35.24L88.36-35.24L88.36-35.24Q90.80-36.24 93.76-36.24L93.76-36.24L93.76-36.24Q95.12-36.24 95.44-34.72L95.44-34.72L95.44-34.72Q96.64-31.04 97.52-26.08L97.52-26.08L97.52-26.08Q98.40-21.12 99.88-14.88L99.88-14.88L99.88-14.88Q101.36-8.64 102.32-8.56L102.32-8.56L102.32-8.56Q102.80-8.56 103.40-9.28L103.40-9.28L103.40-9.28Q104-10 104.84-11.20L104.84-11.20L104.84-11.20Q105.68-12.40 106.92-15.84L106.92-15.84L106.92-15.84Q108.16-19.28 108.16-21.72L108.16-21.72L108.16-21.72Q108.16-24.16 107.96-25.48L107.96-25.48L107.96-25.48Q107.76-26.80 106.56-28.56L106.56-28.56L106.56-28.56Q105.36-30.32 103.84-30.60L103.84-30.60L103.84-30.60Q102.32-30.88 102.32-31.60L102.32-31.60L102.32-31.60Q102.32-32.88 105.72-34.56" fill="#00493e" stroke="none" stroke-width="none" transform="translate(-109.44000911712646,22.82279399871826)" style="fill: rgb(0, 73, 62);"></path></g><g class="path" style="transform: matrix(1, 0, 0, 1, 0, 0); transform-origin: 21.72px 5.42279px; animation: 1s linear -0.2475s infinite normal forwards running bounce-d7607dfb-5ee1-493f-a32f-a0e2b959eb9e;"><path d="M126.24-20.32L126.24-20.32L126.32-18.32L126.32-18.32Q126.32-17.84 126.96-17.84L126.96-17.84L126.96-17.84Q129.52-18.08 131.44-19.16L131.44-19.16L131.44-19.16Q133.36-20.24 134.32-21.60L134.32-21.60L134.32-21.60Q136.24-24.56 136.40-26.72L136.40-26.72L136.48-27.68L136.48-27.68Q136.48-32 133.04-32L133.04-32L133.04-32Q130.48-32 128.88-29.76L128.88-29.76L128.88-29.76Q126.24-26.24 126.24-20.32zM143.68-9.68L143.68-9.68L143.68-9.68Q143.68-6.64 142.44-4.36L142.44-4.36L142.44-4.36Q141.20-2.08 139.64-1L139.64-1L139.64-1Q138.08 0.08 136 0.72L136 0.72L136 0.72Q133.36 1.52 130.96 1.52L130.96 1.52L130.96 1.52Q124.24 1.52 121.04-3.52L121.04-3.52L121.04-3.52Q117.84-8.56 117.84-16.36L117.84-16.36L117.84-16.36Q117.84-24.16 121.80-30.24L121.80-30.24L121.80-30.24Q125.76-36.32 133.68-36.32L133.68-36.32L133.68-36.32Q140.88-36.32 143.44-31.28L143.44-31.28L143.44-31.28Q144.48-29.36 144.48-27.64L144.48-27.64L144.48-27.64Q144.48-25.92 144.32-24.92L144.32-24.92L144.32-24.92Q144.16-23.92 143.20-21.92L143.20-21.92L143.20-21.92Q142.24-19.92 140.64-18.32L140.64-18.32L140.64-18.32Q139.04-16.72 135.60-15.28L135.60-15.28L135.60-15.28Q132.16-13.84 127.52-13.36L127.52-13.36L127.52-13.36Q126.88-13.36 126.88-12.80L126.88-12.80L126.88-12.80Q126.88-12.08 127.40-10.68L127.40-10.68L127.40-10.68Q127.92-9.28 128.56-8.32L128.56-8.32L128.56-8.32Q130.32-6.08 133.76-6.08L133.76-6.08L133.76-6.08Q137.20-6.08 139.60-8.32L139.60-8.32L139.60-8.32Q140.88-9.52 141.68-11.28L141.68-11.28L141.68-11.28Q142-11.92 142.52-11.92L142.52-11.92L142.52-11.92Q143.04-11.92 143.36-11.04L143.36-11.04L143.36-11.04Q143.68-10.16 143.68-9.68" fill="#00493e" stroke="none" stroke-width="none" transform="translate(-109.44000911712646,22.82279399871826)" style="fill: rgb(0, 73, 62);"></path></g><g class="path" style="transform: matrix(1, 0, 0, 1, 0, 0); transform-origin: 42.96px -4.0572px; animation: 1s linear -0.165s infinite normal forwards running bounce-d7607dfb-5ee1-493f-a32f-a0e2b959eb9e;"><path d="M158.08-45.76L158.08-45.76L157.60-16.40L157.60-16.40Q157.60-2.64 158.48 0.08L158.48 0.08L158.48 0.08Q158.72 0.56 158.72 1.04L158.72 1.04L158.72 1.04Q158.72 2 156.40 2L156.40 2L156.40 2Q154.08 2 151.24 0.84L151.24 0.84L151.24 0.84Q148.40-0.32 148.40-2.16L148.40-2.16L148.40-2.16Q150-13.36 150-32.08L150-32.08L149.68-44.32L149.68-44.32Q149.52-46.56 148.76-48.16L148.76-48.16L148.76-48.16Q148-49.76 147.28-50.24L147.28-50.24L146.64-50.64L146.64-50.64Q146.08-50.96 146.08-51.36L146.08-51.36L146.08-51.36Q146.08-52.48 149.56-54.12L149.56-54.12L149.56-54.12Q153.04-55.76 156.32-55.76L156.32-55.76L156.32-55.76Q157.60-55.76 157.76-54.88L157.76-54.88L157.76-54.88Q158.08-52.80 158.08-45.76" fill="#00493e" stroke="none" stroke-width="none" transform="translate(-109.44000911712646,22.82279399871826)" style="fill: rgb(0, 73, 62);"></path></g><g class="path" style="transform: matrix(1, 0, 0, 1, 0, 0); transform-origin: 66.6px 5.42279px; animation: 1s linear -0.0825s infinite normal forwards running bounce-d7607dfb-5ee1-493f-a32f-a0e2b959eb9e;"><path d="M171.12-20.32L171.12-20.32L171.20-18.32L171.20-18.32Q171.20-17.84 171.84-17.84L171.84-17.84L171.84-17.84Q174.40-18.08 176.32-19.16L176.32-19.16L176.32-19.16Q178.24-20.24 179.20-21.60L179.20-21.60L179.20-21.60Q181.12-24.56 181.28-26.72L181.28-26.72L181.36-27.68L181.36-27.68Q181.36-32 177.92-32L177.92-32L177.92-32Q175.36-32 173.76-29.76L173.76-29.76L173.76-29.76Q171.12-26.24 171.12-20.32zM188.56-9.68L188.56-9.68L188.56-9.68Q188.56-6.64 187.32-4.36L187.32-4.36L187.32-4.36Q186.08-2.08 184.52-1L184.52-1L184.52-1Q182.96 0.08 180.88 0.72L180.88 0.72L180.88 0.72Q178.24 1.52 175.84 1.52L175.84 1.52L175.84 1.52Q169.12 1.52 165.92-3.52L165.92-3.52L165.92-3.52Q162.72-8.56 162.72-16.36L162.72-16.36L162.72-16.36Q162.72-24.16 166.68-30.24L166.68-30.24L166.68-30.24Q170.64-36.32 178.56-36.32L178.56-36.32L178.56-36.32Q185.76-36.32 188.32-31.28L188.32-31.28L188.32-31.28Q189.36-29.36 189.36-27.64L189.36-27.64L189.36-27.64Q189.36-25.92 189.20-24.92L189.20-24.92L189.20-24.92Q189.04-23.92 188.08-21.92L188.08-21.92L188.08-21.92Q187.12-19.92 185.52-18.32L185.52-18.32L185.52-18.32Q183.92-16.72 180.48-15.28L180.48-15.28L180.48-15.28Q177.04-13.84 172.40-13.36L172.40-13.36L172.40-13.36Q171.76-13.36 171.76-12.80L171.76-12.80L171.76-12.80Q171.76-12.08 172.28-10.68L172.28-10.68L172.28-10.68Q172.80-9.28 173.44-8.32L173.44-8.32L173.44-8.32Q175.20-6.08 178.64-6.08L178.64-6.08L178.64-6.08Q182.08-6.08 184.48-8.32L184.48-8.32L184.48-8.32Q185.76-9.52 186.56-11.28L186.56-11.28L186.56-11.28Q186.88-11.92 187.40-11.92L187.40-11.92L187.40-11.92Q187.92-11.92 188.24-11.04L188.24-11.04L188.24-11.04Q188.56-10.16 188.56-9.68" fill="#00493e" stroke="none" stroke-width="none" transform="translate(-109.44000911712646,22.82279399871826)" style="fill: rgb(0, 73, 62);"></path></g><g class="path" style="transform: matrix(1, 0, 0, 1, 0, 0); transform-origin: 95.12px 5.26279px; animation: 1s linear 0s infinite normal forwards running bounce-d7607dfb-5ee1-493f-a32f-a0e2b959eb9e;"><path d="M216.96-27.52L216.56-21.44L216.88-18.64L216.88-18.64Q216.88-17.12 214-17.12L214-17.12L214-17.12Q208.16-17.12 208.16-21.52L208.16-21.52L208.16-21.52Q208.16-22.56 208.72-24.40L208.72-24.40L208.72-24.40Q209.28-26.24 209.28-27.60L209.28-27.60L209.28-27.60Q209.28-28.96 208.48-29.96L208.48-29.96L208.48-29.96Q207.68-30.96 206.16-30.96L206.16-30.96L206.16-30.96Q204.64-30.96 203.56-29.88L203.56-29.88L203.56-29.88Q202.48-28.80 202.24-27.68L202.24-27.68L201.92-26.56L201.92-26.56Q201.44-24.08 201.44-18.28L201.44-18.28L201.44-18.28Q201.44-12.48 201.60-9.16L201.60-9.16L201.60-9.16Q201.76-5.84 201.92-4.60L201.92-4.60L201.92-4.60Q202.08-3.36 202.08-3.12L202.08-3.12L202.08-3.12Q202.08-1.12 199.60 0.12L199.60 0.12L199.60 0.12Q197.12 1.36 194.64 1.36L194.64 1.36L194.64 1.36Q192.16 1.36 192.16 0.32L192.16 0.32L192.56-2.16L192.56-2.16Q193.68-9.12 193.68-20.32L193.68-20.32L193.68-20.32Q193.68-31.52 192.88-35.52L192.88-35.52L192.88-35.52Q192.88-36.48 194.56-36.48L194.56-36.48L194.56-36.48Q198.88-36.48 200.32-33.52L200.32-33.52L200.32-33.52Q200.40-33.20 200.60-33.20L200.60-33.20L200.60-33.20Q200.80-33.20 201.68-33.92L201.68-33.92L201.68-33.92Q204.32-36.08 207.92-36.08L207.92-36.08L207.92-36.08Q210.16-36.08 212.40-35.20L212.40-35.20L212.40-35.20Q216.96-33.36 216.96-27.52L216.96-27.52" fill="#00493e" stroke="none" stroke-width="none" transform="translate(-109.44000911712646,22.82279399871826)" style="fill: rgb(0, 73, 62);"></path></g></g>
</g>
</g>
<style id="bounce-d7607dfb-5ee1-493f-a32f-a0e2b959eb9e" data-anikit="">@keyframes bounce-d7607dfb-5ee1-493f-a32f-a0e2b959eb9e
{
  0% {
    animation-timing-function: cubic-bezier(0.1361,0.2514,0.2175,0.8786);
    transform: translate(0,0px) scaleY(1);
  }
  37% {
    animation-timing-function: cubic-bezier(0.7674,0.1844,0.8382,0.7157);
    transform: translate(0,-39.96px) scaleY(1);
  }
  72% {
    animation-timing-function: cubic-bezier(0.1118,0.2149,0.2172,0.941);
    transform: translate(0,0px) scaleY(1);
  }
  87% {
    animation-timing-function: cubic-bezier(0.7494,0.2259,0.8209,0.6963);
    transform: translate(0,19.900000000000002px) scaleY(0.602);
  }
  100% {
    transform: translate(0,0px) scaleY(1);
  }
}</style></svg>